<svg width="39" height="40" xmlns="http://www.w3.org/2000/svg" xmlns:xlink="http://www.w3.org/1999/xlink" xml:space="preserve" overflow="hidden"><g transform="translate(-216 -79)"><path d="M36.2903 22.1126 33.603 16.0144 27.0924 16.5929 21.983 30.5853C21.9761 30.604 21.9728 30.6032 21.9753 30.5833L24.5806 10.5308 17.6637 3.61562 10.7473 10.5308 13.3307 30.4163C13.3331 30.435 13.3307 30.4358 13.323 30.4184L9.73456 20.997 4.92456 20.5802 3.02453 24.9177 10.8318 34.6873 13.7719 33.8195 13.7719 33.8223 21.3724 33.8223 25.0973 34.7344ZM5.43522 21.4403 9.15688 21.7628C9.165 21.7628 9.15931 21.7689 9.15931 21.7689L7.25644 24.4603 3.978 24.8089C3.978 24.8089 3.95809 24.8138 3.96581 24.7938 3.97353 24.7739 5.43522 21.4403 5.43522 21.4403ZM4.57966 25.5617 7.26375 25.2773 12.0575 33.4795 11.1268 33.7541ZM12.859 33.2398 7.96494 24.8657 9.50869 22.6838 13.4623 33.0643ZM35.3068 21.9107 30.5329 21.3647 27.7469 17.3562C27.7457 17.3543 27.7464 17.3518 27.7483 17.3507 27.7489 17.3504 27.7495 17.3502 27.7501 17.3501L33.0943 16.8752 35.3108 21.905C35.3117 21.9071 35.3108 21.9095 35.3088 21.9104 35.3082 21.9106 35.3075 21.9107 35.3068 21.9107ZM17.2575 33.0098 14.4869 33.0098 11.7301 11.7906 17.2575 14.2781ZM18.0781 5.17644 23.7136 10.8132C23.7154 10.8145 23.7158 10.8171 23.7144 10.8188 23.7142 10.8192 23.7139 10.8194 23.7136 10.8197L18.07 13.3843 18.07 5.17806C18.0704 5.17562 18.0728 5.17404 18.0752 5.17449 18.0764 5.17473 18.0775 5.17542 18.0781 5.17644ZM17.2583 5.17928 17.2583 13.3855 11.596 10.8392C11.5942 10.8375 11.5941 10.8346 11.5958 10.8328 11.5959 10.8328 11.5959 10.8327 11.596 10.8327L17.2506 5.17603C17.2522 5.17445 17.2548 5.17445 17.2563 5.17607 17.2572 5.17693 17.2576 5.1781 17.2575 5.17928ZM18.0708 33.0098 18.0708 14.2768 23.6031 11.7626 20.8406 33.0094ZM27.3589 18.2313 27.5031 18.4291 29.7932 21.7246 22.8231 33.3405 21.9225 33.1208ZM23.649 33.5441 30.4712 22.1756 34.5256 22.6387 34.7137 22.6659 24.8146 33.8297Z" stroke="#000000" stroke-width="0.406299" transform="matrix(1 0 0 1.02564 216 79)"/></g></svg>